<svg width="1547" height="1547" viewBox="0 0 1547 1547" fill="none" xmlns="http://www.w3.org/2000/svg">
<rect width="1547" height="1547" fill="#D0A360"/>
<path d="M261.461 447L770.684 153C776.424 149.686 785.729 149.686 791.469 153L1290.3 441C1296.04 444.314 1296.04 449.686 1290.3 453L791.469 741C785.729 744.314 776.424 744.314 770.684 741L319.461 480.486" stroke="black" stroke-width="24"/>
<path d="M786.461 799L1306.08 499L786.461 799ZM1316.47 1081C1316.47 1094.25 1307.16 1110.37 1295.68 1117L796.854 1405C785.375 1411.63 776.069 1406.25 776.069 1393L796.854 1381L1295.68 1093L1316.47 1081ZM796.854 1405C785.375 1411.63 776.069 1406.25 776.069 1393V805L796.854 793V1381V1405ZM1316.47 493V1081C1316.47 1094.25 1307.16 1110.37 1295.68 1117V1093V505L1316.47 493Z" fill="#AD1D0A"/>
<path d="M781.077 1394L315.155 1125C309.415 1121.69 304.763 1113.63 304.763 1107V848.5" stroke="#AD1D0A" stroke-width="24"/>
<path d="M240 1059.46V471.464C240 464.836 244.653 456.777 250.393 453.464L289.036 431.155L759.615 159.464" stroke="black" stroke-width="24"/>
<path d="M240 1063V1033" stroke="black" stroke-width="21" stroke-linecap="round"/>
<path d="M315.15 841C315.15 835.394 310.606 830.85 305 830.85C299.394 830.85 294.85 835.394 294.85 841H305H315.15ZM305 871H315.15V841H305H294.85V871H305Z" fill="#AD1D0A"/>
<path d="M306 473L331.932 488.084" stroke="black" stroke-width="21" stroke-linecap="round"/>
<path d="M1306 524V494" stroke="#AD1D0A" stroke-width="21" stroke-linecap="round"/>
</svg>
